<svg version="1.1" id="Layer_1" xmlns="http://www.w3.org/2000/svg" xmlns:xlink="http://www.w3.org/1999/xlink" x="0px" y="0px"
	 width="100%" viewBox="0 0 148 148" enable-background="new 0 0 148 148" xml:space="preserve">
<path fill="#000000" opacity="1.000000" stroke="none" 
	d="
M0.999998,135.000000 
	C1.000000,95.979103 1.000000,56.958210 1.331740,17.357182 
	C4.375206,8.687308 10.340982,3.967012 18.000000,1.000000 
	C55.687561,1.000000 93.375122,1.000000 131.889038,1.069342 
	C140.958557,3.007893 145.864014,8.534488 149.000000,16.000000 
	C149.000000,54.354229 149.000000,92.708458 148.999496,131.907913 
	C146.676208,141.133057 141.358475,146.563690 133.000000,149.000000 
	C94.979103,149.000000 56.958210,149.000000 18.114582,148.915985 
	C13.711227,146.878296 9.779403,145.357834 6.663073,142.831436 
	C4.246987,140.872742 2.849990,137.656982 0.999998,135.000000 
M99.509933,74.035065 
	C98.441086,73.590096 97.372246,73.145126 96.003334,72.575233 
	C102.628136,69.613411 106.571838,64.867355 106.955658,57.701073 
	C107.550400,46.596516 99.082932,38.473724 86.357887,38.281792 
	C72.531685,38.073246 58.700027,38.217686 44.870800,38.239513 
	C44.109653,38.240715 43.348953,38.528770 42.344009,38.732864 
	C42.344009,62.297176 42.341549,85.604988 42.354473,108.912796 
	C42.354916,109.709572 42.509758,110.506271 42.642582,111.783211 
	C49.980106,111.783211 57.101265,111.968590 64.208977,111.738518 
	C74.166946,111.416191 84.174568,111.292755 94.049355,110.133583 
	C102.857185,109.099678 108.803841,102.631233 110.021317,94.635757 
	C111.464638,85.157219 108.513191,79.041122 99.509933,74.035065 
z"/>
<path fill="#F7F7F7" opacity="1.000000" stroke="none" 
	d="
M17.529547,1.000000 
	C10.340982,3.967012 4.375206,8.687308 1.331740,16.888523 
	C1.000000,11.739020 1.000000,6.478040 1.000000,1.000000 
	C6.351708,1.000000 11.705401,1.000000 17.529547,1.000000 
z"/>
<path fill="#F5F5F5" opacity="1.000000" stroke="none" 
	d="
M133.471191,149.000000 
	C141.358475,146.563690 146.676208,141.133057 148.999496,132.376572 
	C149.000000,137.589523 149.000000,143.179062 149.000000,149.000000 
	C143.983139,149.000000 138.962769,149.000000 133.471191,149.000000 
z"/>
<path fill="#F6F6F6" opacity="1.000000" stroke="none" 
	d="
M149.000000,15.527336 
	C145.864014,8.534488 140.958557,3.007893 132.357697,1.069342 
	C137.586563,1.000000 143.173111,1.000000 149.000000,1.000000 
	C149.000000,5.682189 149.000000,10.368431 149.000000,15.527336 
z"/>
<path fill="#F6F6F6" opacity="1.000000" stroke="none" 
	d="
M0.999998,135.474121 
	C2.849990,137.656982 4.246987,140.872742 6.663073,142.831436 
	C9.779403,145.357834 13.711227,146.878296 17.645926,148.915985 
	C12.416616,149.000000 6.833232,149.000000 1.000000,149.000000 
	C1.000000,144.652557 1.000000,140.300400 0.999998,135.474121 
z"/>
<path fill="#F9F9F9" opacity="1.000000" stroke="none" 
	d="
M99.852737,74.154686 
	C108.513191,79.041122 111.464638,85.157219 110.021317,94.635757 
	C108.803841,102.631233 102.857185,109.099678 94.049355,110.133583 
	C84.174568,111.292755 74.166946,111.416191 64.208977,111.738518 
	C57.101265,111.968590 49.980106,111.783211 42.642582,111.783211 
	C42.509758,110.506271 42.354916,109.709572 42.354473,108.912796 
	C42.341549,85.604988 42.344009,62.297176 42.344009,38.732864 
	C43.348953,38.528770 44.109653,38.240715 44.870800,38.239513 
	C58.700027,38.217686 72.531685,38.073246 86.357887,38.281792 
	C99.082932,38.473724 107.550400,46.596516 106.955658,57.701073 
	C106.571838,64.867355 102.628136,69.613411 96.003334,72.575233 
	C97.372246,73.145126 98.441086,73.590096 99.852737,74.154686 
M67.732155,95.749519 
	C72.215034,95.592369 76.714378,95.620453 81.175972,95.223862 
	C85.302559,94.857048 87.332222,92.225067 87.326714,88.120049 
	C87.321281,84.076607 84.892906,81.832222 81.194481,81.573479 
	C76.120827,81.218513 71.003708,81.484688 65.106750,81.484688 
	C65.688622,86.433762 66.233322,91.066734 67.732155,95.749519 
M81.644699,54.542698 
	C76.446114,53.973915 71.247520,53.405136 65.852448,52.814857 
	C65.852448,58.093506 65.852448,62.354145 65.852448,66.932205 
	C69.854668,66.932205 73.714211,67.370880 77.405853,66.772949 
	C79.740311,66.394844 83.142807,64.886841 83.696114,63.136425 
	C84.433975,60.802128 82.869911,57.740192 81.644699,54.542698 
z"/>
<path fill="#090909" opacity="1.000000" stroke="none" 
	d="
M67.255089,95.724609 
	C66.233322,91.066734 65.688622,86.433762 65.106750,81.484688 
	C71.003708,81.484688 76.120827,81.218513 81.194481,81.573479 
	C84.892906,81.832222 87.321281,84.076607 87.326714,88.120049 
	C87.332222,92.225067 85.302559,94.857048 81.175972,95.223862 
	C76.714378,95.620453 72.215034,95.592369 67.255089,95.724609 
z"/>
<path fill="#090909" opacity="1.000000" stroke="none" 
	d="
M81.969643,54.766747 
	C82.869911,57.740192 84.433975,60.802128 83.696114,63.136425 
	C83.142807,64.886841 79.740311,66.394844 77.405853,66.772949 
	C73.714211,67.370880 69.854668,66.932205 65.852448,66.932205 
	C65.852448,62.354145 65.852448,58.093506 65.852448,52.814857 
	C71.247520,53.405136 76.446114,53.973915 81.969643,54.766747 
z"/>
</svg>